<!DOCTYPE svg PUBLIC "-//W3C//DTD SVG 1.1//EN" "http://www.w3.org/Graphics/SVG/1.1/DTD/svg11.dtd">

<!-- Uploaded to: SVG Repo, www.svgrepo.com, Transformed by: SVG Repo Mixer Tools -->
<svg width="24px" height="24px" viewBox="0 0 24 24" fill="none" xmlns="http://www.w3.org/2000/svg" stroke="#ffffff">

<g id="SVGRepo_bgCarrier" stroke-width="0"  fill="#fff"/>

<g id="SVGRepo_tracerCarrier" stroke-linecap="round" stroke-linejoin="round"/>

<g id="SVGRepo_iconCarrier"> <path d="M9 5C9 3.89543 9.89543 3 11 3H13C14.1046 3 15 3.89543 15 5V7H9V5Z" stroke="#fff" stroke-width="2" stroke-linecap="round" stroke-linejoin="round"/> <path d="M9 5H7C5.89543 5 5 5.89543 5 7V19C5 20.1046 5.89543 21 7 21H10M15 5H17C18.1046 5 19 5.89543 19 7V12" stroke="#fff" stroke-width="2" stroke-linecap="round" stroke-linejoin="round"/> <path d="M14 16L16.5 18.5M19 21L16.5 18.5M16.5 18.5L19 16M16.5 18.5L14 21" stroke="#fff" stroke-width="2" stroke-linecap="round" stroke-linejoin="round"/> </g>

</svg>